<svg width="63" height="63" viewBox="0 0 63 63" fill="none" xmlns="http://www.w3.org/2000/svg">
<rect width="62.9982" height="63" rx="31.4991" fill="#0F595C"/>
<path fill-rule="evenodd" clip-rule="evenodd" d="M9.24709 19.3595C7.92282 20.6218 9.32726 24.0594 14.8427 33.0552C18.1548 38.4558 21.3624 43.1748 21.972 43.5419C23.9467 44.7298 25.3663 43.453 27.849 38.2587L30.2839 33.1626L32.1328 37.0972C34.6279 42.4075 34.8532 42.6804 36.7401 42.6804C38.5689 42.6804 39.6817 41.3746 43.5943 34.6359C45.748 30.9273 46.0348 29.994 45.381 28.8292C44.0636 26.4812 41.207 27.3362 39.2953 30.6505C38.4065 32.191 37.4692 33.4513 37.2128 33.45C36.9564 33.4487 35.8492 31.3611 34.7523 28.8114C31.3967 21.0074 28.9866 21.1762 25.3981 29.4653C24.125 32.4065 22.9224 34.6602 22.7268 34.473C22.5305 34.2858 20.3126 30.7909 17.7974 26.706C14.0859 20.6785 12.8971 19.2428 11.4823 19.0846C10.5237 18.9772 9.51733 19.1011 9.24709 19.3595Z" fill="white"/>
<path d="M54.2031 24.428C54.2031 26.6573 52.3261 28.4644 50.0107 28.4644C47.6953 28.4644 45.8184 26.6573 45.8184 24.428C45.8184 22.1988 47.6953 20.3916 50.0107 20.3916C52.3261 20.3916 54.2031 22.1988 54.2031 24.428ZM47.862 24.428C47.862 25.5706 48.824 26.4968 50.0107 26.4968C51.1974 26.4968 52.1594 25.5706 52.1594 24.428C52.1594 23.2855 51.1974 22.3592 50.0107 22.3592C48.824 22.3592 47.862 23.2855 47.862 24.428Z" fill="#F28532"/>
</svg>
